<svg id="Logo" xmlns="http://www.w3.org/2000/svg" viewBox="0 0 252.08 287.68"><title>Graymonk-Design-Logo-White</title><path d="M267.93,158.44l7.19-3.7c-2.75-19-8.57-56-47.47-79.5L242,68.9c-11.2-24.43-32.64-39-56.66-41.86C184.21,17.32,174,8.33,160.21,5.9,139.34,2.26,125.76,14.81,128,26.62A114.76,114.76,0,0,0,45.94,65l10.79,4.76A137.8,137.8,0,0,1,72.58,57.27C70,63.51,68.14,68.69,66.34,74.19c14.94,5,5.16,8.45,18-11.84,3-4.74,2.18-8.06,3.18,19.24,1.3,0,.26,1,20.19,4.22,5.95-23.81,24.75-48.87,47.25-45.66C131.49,41.82,117.27,66.69,111.69,89c-.54,2.18,1.26,2.94-11.52.1-4.48-1-11.34-2.46-15.86-5,0-21.58,2-20.09-7.5-3.48-17.4-8.09-8.18-3.86-14.69-6.77A59.05,59.05,0,0,1,64.55,68C44.25,81.9,10,121.12,28.18,199.66a67.58,67.58,0,0,1,13.11-12c-6.82,12.67,12.07,15.85,18.61,13.64,9.33-3.16,12.59-16.28,3.06-21,13.54.52.39,5.16,20.51-3C60.58,153.5,49.92,127.57,57.15,91.42c-1.59,8.56-5.71,47.88,35.2,88.26C69.86,189.09,74,186.37,74,190.36c-1.48,24.73-35.52,12.58-35.52,12.58a113.68,113.68,0,0,0,68.39,64.16c0,31.11,35.57,35.21,41,6.34a123.84,123.84,0,0,0,18-1.9c8.25,19.24,29.15,11.93,30.13-10.15,57.06-28.62,60.8-83.82,62.26-83.82C271.14,173.11,276.4,161.92,267.93,158.44ZM170.36,74.82c2.55.28,4.64.54,6.55-1.37,4.17-4.17,4-10-3.38-14.91-.56-3,5.89-7.72,8.77-8.88,1.91-.76,1.43-.91,2.22.43-.31,0-1,2-1,2.53,0,3-.58-1.58-.53-1.58-8.17,4.67-6.78,4.76-8,5.39,14.89,7.44,6.23,20.61.42,20.61C173.07,77.63,165.8,73.91,170.36,74.82Zm12.9-17.12a.62.62,0,0,0,.42-.11,1.85,1.85,0,0,1-1.59,1.06c-2.62,0-2.69-4.65,0-4.65A2.05,2.05,0,0,1,184,56.22C182.51,54.73,181.67,57.7,183.26,57.7ZM191,76.41c-.54,3.27-2.87,9.47-6.45,11.52a10.59,10.59,0,0,0,2.65-5.5c1.58-6.33-.32,1.62-14,4.65a52.39,52.39,0,0,1-24.94.53C191.07,85.09,193,66.16,191,76.41ZM163.17,60a2.75,2.75,0,0,1-2.32,1.38c-3.66,0-3.6-6.35,0-6.35a2.94,2.94,0,0,1,2.74,2.65,1.28,1.28,0,0,0-1.16-.74C159.87,57,161.41,61.79,163.17,60Zm-8.88-48c-2.25.9-10.49,2.82-15.43,5.29-2.84,1.41-3.36,2.43-2.64.63C139.47,8.2,158.72,10.26,154.29,12Zm-5.71,47.78c2.11-4.21,9.35-9.28,13.22-10.57,3-1.52,2.54-1.22,3.7.74-1.46,1.46-1.8,3.86-1.8,5.92a10.9,10.9,0,0,1-.74-4.44C148.58,59.3,144.77,65.92,148.58,59.81Zm19.77,53.49c2.47-.39,1.76-.67,3,1.06.17.33,1.31,1.58,1.38,1.69,8.41,8.42,10.56-1.11,12.47-1.59,2.48-.31,8.74-1.5,10.78-3-1.81,2.42-5.33,3.78-7.29,4.76-3.66,1.83-1.05.26-4,4.23-3.43,4.57-9.54,5.67-16.28-1.06-.37-.37-30.72,7.34-50.1-12.05C133.9,115.2,151.27,116.15,168.35,113.3ZM178,201c-48.17,2.4-89.9-34.18-108.35-75.69C56.57,96,88.84,179.62,161,197.65,175.46,201.28,194.24,199.78,178,201Zm55.18-87.32c-8.5,11.34-26.88,26.64-46.62,35.41-36.08,14.43-44.5,7.12-27.27,13.11,22.39,6.81,35,5.61,46.72,4.55,9.21-1.68,8.21-1.89,5.61-.85C137.14,190.75,59.15,99.5,59.05,99.45c1.89,1,21.65,22.08,63.53,46.83,21.15,11,18.32,11.17,31.5,8.35C204.47,144.55,238.89,106.83,233.15,113.72Z" transform="translate(-23.04 -5.26)" fill="#ffffff"/></svg>